<svg width="100" height="100" viewBox="0 0 100 100" fill="none" xmlns="http://www.w3.org/2000/svg">
<path d="M79 0C90.0457 1.15966e-06 99 8.95431 99 20V80C99 91.0457 90.0457 100 79 100H21C9.95431 100 1 91.0457 1 80V20C1 8.95431 9.95431 0 21 0H79ZM29.2539 65.4805C28.6934 65.0353 28.0832 64.5904 27.6709 64.9199C27.5225 65.0353 27.3882 65.2834 27.5391 65.7441C27.6526 66.0909 27.9178 66.5192 28.3135 67.0137C33.3767 73.2627 41.5246 75.9999 49.3916 76C56.2693 76 62.9165 73.9222 67.1387 70.2617C67.8643 69.6188 68.2432 69.1076 68.2432 68.7119C68.2431 68.5472 68.178 68.4149 68.0625 68.2832C67.6998 67.904 67.1548 68.185 66.4951 68.5312C62.5698 70.5922 56.5337 72.0097 50.1182 72.0098C42.8777 72.0098 35.1255 70.2126 29.2539 65.4805ZM69.332 64.0459C67.9303 64.0459 66.5778 64.3922 65.3574 65.0352C64.5989 65.4473 63.9068 65.9088 64.1367 66.4365C64.3021 66.8156 64.7802 66.8163 65.5225 66.668C67.5015 66.2392 70.0076 66.2063 70.4365 66.7998C70.8489 67.4099 69.9422 69.7512 68.8701 71.4658C68.4743 72.1253 68.3098 72.5373 68.6396 72.8506C68.722 72.9494 68.837 72.9826 68.9688 72.999C69.3646 72.999 69.8762 72.6034 70.3545 72.1582C71.3934 71.2514 72.2021 70.0974 72.6475 68.7949C73.0927 67.5418 73.3065 65.7775 72.8447 65.1016C72.3994 64.4585 70.668 64.0294 69.332 64.0459ZM39.9492 45.8145C39.7019 45.8146 39.5205 45.9957 39.5205 46.2432V54.4873C39.5205 57.8049 41.0382 59.8359 43.5127 59.8359C45.0631 59.8359 46.2176 59.0269 46.8115 57.4922H46.9443L47.2734 59.1094C47.3311 59.3733 47.4716 59.538 47.7354 59.5381H49.9131C50.1605 59.5381 50.3418 59.3569 50.3418 59.1094V46.2432C50.3418 45.9956 50.1605 45.8145 49.9131 45.8145H47.2734C47.0262 45.8146 46.8447 45.9957 46.8447 46.2432V53.7617C46.8447 55.6597 46.1517 56.6504 44.832 56.6504C43.6445 56.6502 43.0176 55.7915 43.0176 54.2236V46.2432C43.0176 45.9956 42.8363 45.8145 42.5889 45.8145H39.9492ZM57.1533 45.5166C54.3985 45.5166 52.1885 47.0191 52.1885 49.7012C52.1885 51.6158 53.1289 53.027 56.0322 53.7285L57.4668 54.0752C58.5391 54.3351 59.0508 54.8019 59.0508 55.6602C59.0505 56.5429 58.3242 57.0869 57.2852 57.0869C56.1471 57.0868 55.355 56.3941 55.124 54.9502C55.058 54.5871 54.8935 54.4628 54.5967 54.5205L52.3203 54.9502C52.0564 54.9997 51.924 55.1812 51.957 55.4453C52.353 58.4326 54.5964 59.8358 57.2852 59.8359C60.238 59.8359 62.4492 57.9371 62.4492 55.3457C62.4491 53.2992 61.426 51.9292 59.0342 51.335L57.1045 50.8564C56.0817 50.6006 55.5859 50.163 55.5859 49.4863C55.5861 48.7603 56.2132 48.2657 57.1533 48.2656C58.0936 48.2656 58.7862 48.7934 58.9512 49.7012C58.9841 49.9652 59.1824 50.0765 59.4463 50.0312L61.8223 49.6348C62.1189 49.5852 62.2173 49.4034 62.1514 49.1064C61.6563 46.9858 60.007 45.5166 57.1533 45.5166ZM75.165 45.5166C71.767 45.5167 69.2267 48.6035 69.2266 52.6719C69.2266 56.7486 71.7669 59.8358 75.165 59.8359C77.7055 59.8359 79.8827 58.2014 80.4766 55.2305C80.526 54.9499 80.3947 54.7683 80.1309 54.7188L77.7383 54.29C77.4745 54.2407 77.3101 54.3563 77.2441 54.6367C76.8812 56.3036 76.1548 57.0459 75.165 57.0459C73.6475 57.0458 72.8555 55.4942 72.8555 52.6719C72.8555 49.858 73.6476 48.3068 75.165 48.3066C76.1548 48.3066 76.8812 49.049 77.2441 50.7158C77.3101 50.9963 77.4745 51.1119 77.7383 51.0625L80.1309 50.6338C80.3947 50.5842 80.526 50.4026 80.4766 50.1221C79.8827 47.1511 77.7055 45.5166 75.165 45.5166ZM33.5508 45.5166C32.0497 45.5167 30.8619 46.3304 29.8887 47.9932H29.7568C29.13 46.4294 27.926 45.5167 26.293 45.5166C24.7754 45.5166 23.6369 46.3586 23.043 47.8604H22.9111L22.5811 46.2432C22.5274 45.9792 22.3666 45.8145 22.1191 45.8145H19.9414C19.6941 45.8145 19.5127 45.9957 19.5127 46.2432V59.1094C19.5127 59.3569 19.6941 59.538 19.9414 59.5381H22.5811C22.8284 59.5381 23.0097 59.3569 23.0098 59.1094V51.6738C23.0098 49.7593 23.6861 48.7189 24.9727 48.7188C26.1438 48.7188 26.7714 49.6102 26.7715 51.2109V59.1094C26.7715 59.3569 26.9528 59.5381 27.2002 59.5381H29.8398C30.087 59.5379 30.2685 59.3568 30.2686 59.1094V51.6738C30.2686 49.7592 30.9447 48.7188 32.2314 48.7188C33.4025 48.7188 34.0292 49.6102 34.0293 51.2109V59.1094C34.0293 59.3568 34.2107 59.5379 34.458 59.5381H37.0977C37.3451 59.5381 37.5263 59.3569 37.5264 59.1094V50.9473C37.5264 47.5967 36.0252 45.5166 33.5508 45.5166ZM64.4932 45.8145C64.2459 45.8146 64.0645 45.9957 64.0645 46.2432V59.1094C64.0645 59.3569 64.2459 59.538 64.4932 59.5381H67.1328C67.3802 59.5381 67.5615 59.3569 67.5615 59.1094V46.2432C67.5615 45.9956 67.3802 45.8145 67.1328 45.8145H64.4932ZM65.8135 40.6396C64.6917 40.6396 63.7676 41.3992 63.7676 42.6865C63.7677 43.9408 64.6918 44.7334 65.8135 44.7334C66.935 44.7332 67.8583 43.9407 67.8584 42.6865C67.8584 41.3993 66.9351 40.6398 65.8135 40.6396ZM15.7568 24C12.9362 24.0001 11.0225 25.2922 10.4121 27.6152C10.33 27.9285 10.4785 28.1595 10.7588 28.209L13.0518 28.6055C13.3322 28.655 13.4976 28.5102 13.5801 28.209C13.877 27.157 14.528 26.6076 15.5176 26.6074C16.7713 26.6074 17.3906 27.417 17.3906 29.1006V29.4424C17.0113 29.3599 16.5492 29.3311 16.0215 29.3311C12.3263 29.3311 10 31.2297 10 34.1924C10.0001 36.6515 11.5836 38.3183 13.9424 38.3184C15.5755 38.3184 16.7635 37.4728 17.3574 36.041H17.4893L17.8193 37.5928C17.8772 37.8566 18.0257 38.0215 18.2812 38.0215H20.459C20.7061 38.0213 20.8875 37.84 20.8877 37.5928V29.2939C20.8876 25.8485 19.1056 24 15.7568 24ZM48.2842 24C45.4635 24.0001 43.5498 25.2922 42.9395 27.6152C42.8573 27.9285 43.0059 28.1595 43.2861 28.209L45.5791 28.6055C45.8595 28.655 46.025 28.5102 46.1074 28.209C46.4043 27.157 47.0554 26.6076 48.0449 26.6074C49.2986 26.6074 49.918 27.417 49.918 29.1006V29.4424C49.5386 29.3599 49.0766 29.3311 48.5488 29.3311C44.8537 29.3311 42.5273 31.2297 42.5273 34.1924C42.5274 36.6515 44.111 38.3182 46.4697 38.3184C48.1028 38.3184 49.2909 37.4728 49.8848 36.041H50.0166L50.3467 37.5928C50.4045 37.8566 50.553 38.0215 50.8086 38.0215H52.9863C53.2334 38.0213 53.4148 37.84 53.415 37.5928V29.2939C53.415 25.8485 51.6329 24 48.2842 24ZM71.4102 24C68.0285 24.0001 65.4717 27.0659 65.4717 31.1592C65.4717 35.2483 68.0285 38.3144 71.4102 38.3145C74.8084 38.3145 77.3818 35.2484 77.3818 31.1592C77.3818 27.0659 74.8084 24 71.4102 24ZM37.0361 24C35.5351 24.0001 34.3473 24.8128 33.374 26.4756H33.2422C32.6153 24.9119 31.4112 24.0001 29.7783 24C28.2607 24 27.1222 24.8418 26.5283 26.3438H26.3965L26.0664 24.7266C26.0128 24.4625 25.8519 24.2969 25.6045 24.2969H23.4268C23.1794 24.297 22.998 24.479 22.998 24.7266V37.5928C22.9983 37.8401 23.1796 38.0214 23.4268 38.0215H26.0664C26.3137 38.0215 26.4949 37.8401 26.4951 37.5928V30.1562C26.4952 28.242 27.1716 27.2023 28.458 27.2021C29.6292 27.2021 30.2568 28.0934 30.2568 29.6943V37.5928C30.257 37.8401 30.4383 38.0215 30.6855 38.0215H33.3252C33.5723 38.0213 33.7537 37.84 33.7539 37.5928V30.1562C33.754 28.2418 34.4301 27.2021 35.7168 27.2021C36.8879 27.2022 37.5146 28.0934 37.5146 29.6943V37.5928C37.5149 37.84 37.6962 38.0213 37.9434 38.0215H40.583C40.8303 38.0215 41.0115 37.8401 41.0117 37.5928V29.4307C41.0117 26.08 39.5105 24 37.0361 24ZM55.4424 24.2969C55.1951 24.297 55.0137 24.4791 55.0137 24.7266V26.6406C55.0137 26.8881 55.1951 27.0701 55.4424 27.0703H60.4492L55.0801 34.9844C54.9482 35.1824 54.8819 35.3804 54.8818 35.6113V37.5928C54.882 37.8401 55.0634 38.0214 55.3105 38.0215H64.3838C64.6311 38.0214 64.8123 37.8401 64.8125 37.5928V35.6777C64.8125 35.4302 64.6477 35.2491 64.3838 35.249H58.9277L64.3506 27.334C64.499 27.1195 64.5488 26.938 64.5488 26.707V24.7266C64.5488 24.4791 64.3674 24.297 64.1201 24.2969H55.4424ZM85.9258 24C84.3587 24 83.171 24.8459 82.5771 26.3438H82.4453L82.1152 24.7266C82.0616 24.4625 81.9007 24.2969 81.6533 24.2969H79.4756C79.2282 24.297 79.0469 24.479 79.0469 24.7266V37.5928C79.0471 37.8401 79.2284 38.0214 79.4756 38.0215H82.1152C82.3625 38.0215 82.5437 37.8401 82.5439 37.5928V30.1562C82.544 28.2418 83.2703 27.2021 84.6064 27.2021C85.8269 27.2023 86.5029 28.0935 86.5029 29.6943V37.5928C86.5031 37.84 86.6846 38.0213 86.9316 38.0215H89.5713C89.8186 38.0215 89.9998 37.8401 90 37.5928V29.4307C90 26.08 88.4497 24 85.9258 24ZM16.5156 31.209C16.8126 31.209 17.1102 31.2415 17.3906 31.291V32.1621C17.3906 34.456 16.6482 35.7106 15.2793 35.7109C14.2565 35.7109 13.5957 34.9678 13.5957 33.7959C13.5958 32.2116 14.7178 31.2091 16.5156 31.209ZM49.043 31.209C49.3399 31.209 49.6375 31.2415 49.918 31.291V32.1621C49.9179 34.456 49.1755 35.7106 47.8066 35.7109C46.7839 35.7109 46.123 34.9678 46.123 33.7959C46.1231 32.2116 47.2452 31.2091 49.043 31.209ZM71.4102 26.8018C72.9113 26.8018 73.7529 28.3533 73.7529 31.1592C73.7529 33.961 72.9114 35.5127 71.4102 35.5127C69.9256 35.5126 69.1006 33.9609 69.1006 31.1592C69.1006 28.3534 69.9256 26.8019 71.4102 26.8018Z" fill="white"/>
</svg>
