<svg width="100" height="100" viewBox="0 0 100 100" fill="none" xmlns="http://www.w3.org/2000/svg">
<rect x="1" width="98" height="100" rx="20" fill="#14181B"/>
<path d="M26.2927 45.517C27.9258 45.517 29.13 46.4289 29.7569 47.9928H29.8889C30.8622 46.3299 32.0499 45.517 33.5511 45.517C36.0255 45.517 37.5267 47.5967 37.5267 50.9473V59.1093C37.5267 59.3569 37.3452 59.5385 37.0977 59.5385H34.4583C34.2109 59.5385 34.0294 59.3569 34.0294 59.1093V51.2114C34.0294 49.6104 33.4026 48.719 32.2314 48.719C30.9447 48.719 30.2683 49.7589 30.2683 51.6736V59.1093C30.2683 59.3569 30.0868 59.5385 29.8394 59.5385H27.2C26.9525 59.5385 26.771 59.3569 26.771 59.1093V51.2114C26.771 49.6104 26.1442 48.719 24.973 48.719C23.6863 48.719 23.0099 49.7589 23.0099 51.6736V59.1093C23.0099 59.3569 22.8284 59.5385 22.581 59.5385H19.9416C19.6941 59.5385 19.5127 59.3569 19.5127 59.1093V46.2432C19.5127 45.9956 19.6941 45.8141 19.9416 45.8141H22.1191C22.3665 45.8141 22.5274 45.9792 22.581 46.2432L22.9109 47.8607H23.0429C23.6368 46.3588 24.775 45.517 26.2927 45.517Z" fill="#25D1DA"/>
<path d="M50.3421 46.2432V59.1093C50.3421 59.3569 50.1606 59.5385 49.9132 59.5385H47.7357C47.4717 59.5385 47.3315 59.3734 47.2738 59.1093L46.9439 57.4918H46.8119C46.218 59.0268 45.0633 59.8355 43.5126 59.8355C41.0382 59.8355 39.5205 57.8054 39.5205 54.4878V46.2432C39.5205 45.9956 39.7019 45.8141 39.9494 45.8141H42.5889C42.8363 45.8141 43.0177 45.9956 43.0177 46.2432V54.2237C43.0177 55.7917 43.6446 56.65 44.8323 56.65C46.152 56.65 46.8449 55.6597 46.8449 53.7615V46.2432C46.8449 45.9956 47.0264 45.8141 47.2738 45.8141H49.9132C50.1606 45.8141 50.3421 45.9956 50.3421 46.2432Z" fill="#25D1DA"/>
<path d="M58.9516 49.7011C58.7866 48.7934 58.0938 48.2652 57.1535 48.2652C56.2132 48.2652 55.5863 48.7603 55.5863 49.4866C55.5863 50.1633 56.0812 50.6007 57.104 50.8565L59.034 51.3352C61.426 51.9294 62.4488 53.2994 62.4488 55.3461C62.4488 57.9374 60.2383 59.8355 57.2854 59.8355C54.5965 59.8355 52.3531 58.4326 51.9571 55.4451C51.9241 55.181 52.0561 54.9994 52.3201 54.9499L54.5965 54.5208C54.8935 54.463 55.0584 54.5868 55.1244 54.9499C55.3554 56.3941 56.1472 57.0873 57.2854 57.0873C58.3247 57.0873 59.0505 56.5427 59.0505 55.6597C59.0505 54.8014 58.5392 54.3351 57.4669 54.0751L56.0317 53.7285C53.1284 53.027 52.1881 51.6158 52.1881 49.7011C52.1881 47.019 54.3986 45.517 57.1535 45.517C60.0074 45.517 61.6569 46.986 62.1518 49.1069C62.2178 49.404 62.1189 49.5856 61.8219 49.6351L59.4465 50.0313C59.1825 50.0766 58.9845 49.9652 58.9516 49.7011Z" fill="#25D1DA"/>
<path d="M65.8131 40.6396C66.9349 40.6396 67.8586 41.3989 67.8586 42.6863C67.8586 43.9407 66.9349 44.733 65.8131 44.733C64.6913 44.733 63.7676 43.9407 63.7676 42.6863C63.7676 41.3989 64.6913 40.6396 65.8131 40.6396ZM64.0645 59.1093V46.2432C64.0645 45.9956 64.246 45.8141 64.4934 45.8141H67.1328C67.3803 45.8141 67.5618 45.9956 67.5618 46.2432V59.1093C67.5618 59.3569 67.3803 59.5385 67.1328 59.5385H64.4934C64.246 59.5385 64.0645 59.3569 64.0645 59.1093Z" fill="#25D1DA"/>
<path d="M80.477 55.2305C79.8832 58.2015 77.7057 59.8355 75.1652 59.8355C71.767 59.8355 69.2266 56.749 69.2266 52.6722C69.2266 48.6035 71.767 45.517 75.1652 45.517C77.7057 45.517 79.8832 47.151 80.477 50.122C80.5265 50.4026 80.3946 50.5842 80.1306 50.6337L77.7387 51.0628C77.4747 51.1124 77.3097 50.9968 77.2438 50.7163C76.8809 49.0492 76.155 48.3064 75.1652 48.3064C73.6476 48.3064 72.8557 49.8579 72.8557 52.6722C72.8557 55.4946 73.6476 57.0461 75.1652 57.0461C76.155 57.0461 76.8808 56.3034 77.2438 54.6363C77.3097 54.3557 77.4747 54.2402 77.7387 54.2897L80.1306 54.7188C80.3946 54.7684 80.5265 54.9499 80.477 55.2305Z" fill="#25D1DA"/>
<path d="M64.1368 66.4369C64.3021 66.8159 64.7799 66.8161 65.5222 66.6678C67.5013 66.239 70.0082 66.206 70.437 66.7996C70.8494 67.4097 69.9423 69.751 68.8702 71.4657C68.4744 72.1252 68.3094 72.5375 68.6393 72.8508C68.7218 72.9497 68.8372 72.9827 68.9692 72.9991C69.3651 72.9991 69.8763 72.6034 70.3547 72.1582C71.3936 71.2514 72.2018 70.0972 72.6472 68.7946C73.0924 67.5415 73.3069 65.7773 72.8451 65.1013C72.3997 64.4582 70.668 64.0296 69.332 64.0461C67.9301 64.0461 66.5777 64.3924 65.3572 65.0354C64.5985 65.4476 63.9065 65.909 64.1368 66.4369Z" fill="#25D1DA"/>
<path d="M27.5388 65.7443C27.6524 66.0912 27.9181 66.5193 28.314 67.0139C33.3773 73.263 41.5249 76 49.392 76C56.2697 76 62.9164 73.9225 67.1386 70.2621C67.8644 69.6191 68.2436 69.1079 68.2436 68.7122C68.2436 68.5473 68.1777 68.4154 68.0621 68.2836C67.6994 67.9043 67.155 68.1846 66.4954 68.5309C62.57 70.5919 56.5336 72.0099 50.1178 72.0099C42.8773 72.0099 35.1256 70.2127 29.254 65.4806C28.6934 65.0354 28.0831 64.5902 27.6707 64.92C27.5223 65.0354 27.3879 65.2835 27.5388 65.7443Z" fill="#25D1DA"/>
<path d="M13.9426 38.3186C11.5836 38.3186 10 36.6515 10 34.1922C10 31.2294 12.326 29.3313 16.0211 29.3313C16.549 29.3313 17.0109 29.3602 17.3903 29.4427V29.1002C17.3903 27.4167 16.7717 26.6079 15.518 26.6079C14.5282 26.6079 13.8766 27.1567 13.5797 28.2089C13.4972 28.5102 13.3322 28.6546 13.0518 28.6051L10.7588 28.2089C10.4784 28.1594 10.3299 27.9283 10.4124 27.6148C11.0228 25.2916 12.9364 24 15.7572 24C19.106 24 20.8876 25.8486 20.8876 29.2942V37.5923C20.8876 37.8399 20.7061 38.0215 20.4586 38.0215H18.2812C18.0254 38.0215 17.877 37.8564 17.8192 37.5923L17.4893 36.0408H17.3573C16.7635 37.4727 15.5758 38.3186 13.9426 38.3186ZM15.2788 35.7107C16.648 35.7107 17.3903 34.4563 17.3903 32.162V31.2913C17.1099 31.2418 16.813 31.2088 16.516 31.2088C14.7179 31.2088 13.5962 32.2115 13.5962 33.7961C13.5962 34.9679 14.2561 35.7107 15.2788 35.7107Z" fill="white"/>
<path d="M29.778 24C31.4112 24 32.6154 24.9119 33.2422 26.4759H33.3742C34.3475 24.8129 35.5352 24 37.0364 24C39.5108 24 41.012 26.0797 41.012 29.4304V37.5923C41.012 37.8399 40.8305 38.0215 40.5831 38.0215H37.9437C37.6962 38.0215 37.5148 37.8399 37.5148 37.5923V29.6944C37.5148 28.0934 36.8879 27.2021 35.7167 27.2021C34.43 27.2021 33.7536 28.2419 33.7536 30.1566V37.5923C33.7536 37.8399 33.5722 38.0215 33.3247 38.0215H30.6853C30.4379 38.0215 30.2564 37.8399 30.2564 37.5923V29.6944C30.2564 28.0934 29.6296 27.2021 28.4583 27.2021C27.1716 27.2021 26.4953 28.2419 26.4953 30.1566V37.5923C26.4953 37.8399 26.3138 38.0215 26.0663 38.0215H23.4269C23.1795 38.0215 22.998 37.8399 22.998 37.5923V24.7263C22.998 24.4787 23.1795 24.2971 23.4269 24.2971H25.6045C25.8519 24.2971 26.0127 24.4622 26.0663 24.7263L26.3963 26.3438H26.5282C27.1221 24.8418 28.2604 24 29.778 24Z" fill="white"/>
<path d="M46.47 38.3186C44.111 38.3186 42.5273 36.6515 42.5273 34.1922C42.5273 31.2294 44.8533 29.3313 48.5485 29.3313C49.0764 29.3313 49.5383 29.3602 49.9177 29.4427V29.1002C49.9177 27.4167 49.2991 26.6079 48.0454 26.6079C47.0556 26.6079 46.404 27.1567 46.107 28.2089C46.0246 28.5102 45.8596 28.6546 45.5791 28.6051L43.2862 28.2089C43.0057 28.1594 42.8573 27.9283 42.9397 27.6148C43.5501 25.2916 45.4637 24 48.2845 24C51.6333 24 53.4149 25.8486 53.4149 29.2942V37.5923C53.4149 37.8399 53.2334 38.0215 52.986 38.0215H50.8085C50.5528 38.0215 50.4044 37.8564 50.3466 37.5923L50.0167 36.0408H49.8847C49.2908 37.4727 48.1031 38.3186 46.47 38.3186ZM47.8062 35.7107C49.1754 35.7107 49.9177 34.4563 49.9177 32.162V31.2913C49.6373 31.2418 49.3403 31.2088 49.0434 31.2088C47.2453 31.2088 46.1235 32.2115 46.1235 33.7961C46.1235 34.9679 46.7834 35.7107 47.8062 35.7107Z" fill="white"/>
<path d="M54.8818 35.6117C54.8818 35.3806 54.9478 35.1825 55.0798 34.9845L60.4494 27.0701H55.4427C55.1953 27.0701 55.0138 26.8885 55.0138 26.6409V24.7263C55.0138 24.4787 55.1953 24.2971 55.4427 24.2971H64.1198C64.3672 24.2971 64.5487 24.4787 64.5487 24.7263V26.7069C64.5487 26.938 64.4992 27.1196 64.3507 27.3342L58.9276 35.2485H64.3837C64.6477 35.2485 64.8126 35.4301 64.8126 35.6777V37.5924C64.8126 37.8399 64.6312 38.0215 64.3837 38.0215H55.3108C55.0633 38.0215 54.8818 37.8399 54.8818 37.5924V35.6117Z" fill="white"/>
<path d="M65.4717 31.1593C65.4717 27.0659 68.0286 24 71.4103 24C74.8086 24 77.382 27.0659 77.382 31.1593C77.382 35.2485 74.8086 38.3145 71.4103 38.3145C68.0286 38.3145 65.4717 35.2485 65.4717 31.1593ZM71.4103 35.5126C72.9115 35.5126 73.7528 33.9611 73.7528 31.1593C73.7528 28.3533 72.9115 26.8018 71.4103 26.8018C69.9257 26.8018 69.1009 28.3533 69.1009 31.1593C69.1009 33.9611 69.9257 35.5126 71.4103 35.5126Z" fill="white"/>
<path d="M85.9258 24C88.4498 24 90.0004 26.0797 90.0004 29.4304V37.5923C90.0004 37.8399 89.819 38.0215 89.5715 38.0215H86.9321C86.6847 38.0215 86.5032 37.8399 86.5032 37.5923V29.6944C86.5032 28.0934 85.8268 27.2021 84.6061 27.2021C83.2699 27.2021 82.5441 28.2419 82.5441 30.1566V37.5923C82.5441 37.8399 82.3626 38.0215 82.1152 38.0215H79.4758C79.2283 38.0215 79.0469 37.8399 79.0469 37.5923V24.7263C79.0469 24.4787 79.2283 24.2971 79.4758 24.2971H81.6533C81.9007 24.2971 82.0616 24.4622 82.1152 24.7263L82.4451 26.3438H82.5771C83.1709 24.8459 84.3587 24 85.9258 24Z" fill="white"/>
</svg>
