<svg width="100" height="100" viewBox="0 0 100 100" fill="none" xmlns="http://www.w3.org/2000/svg">
<g clip-path="url(#clip0_38_67)">
<path d="M68.5293 0C69.7204 0 70.9115 0.000319531 72.1025 0.00585938C73.1051 0.0113988 74.1077 0.0221135 75.1104 0.0498047C77.2959 0.107976 79.5014 0.238165 81.6621 0.625977C83.8532 1.0221 85.895 1.66487 87.8867 2.67871C89.8451 3.67592 91.6375 4.97828 93.1914 6.53223C94.7453 8.08617 96.0468 9.87567 97.0439 11.834C98.0578 13.8284 98.7033 15.8697 99.0967 18.0635C99.4845 20.2241 99.6147 22.4267 99.6729 24.6123C99.7005 25.6149 99.7122 26.6175 99.7178 27.6201C99.7233 28.8113 99.7227 30.0032 99.7227 31.1943H99.7207V68.5264C99.7207 69.7174 99.7232 70.9085 99.7148 72.0996C99.7093 73.1024 99.6976 74.1056 99.6699 75.1084C99.6117 77.291 99.4815 79.4958 99.0938 81.6562C98.7004 83.8502 98.0558 85.8923 97.042 87.8867C96.0448 89.8451 94.7425 91.6345 93.1885 93.1885C91.6345 94.7425 89.8422 96.0448 87.8838 97.042C85.8921 98.0558 83.8531 98.7004 81.6592 99.0938C79.4986 99.4815 77.2939 99.6117 75.1084 99.6699C74.1056 99.6976 73.1024 99.7093 72.0996 99.7148C70.9085 99.7204 69.7174 99.7197 68.5264 99.7197H31.1943C30.0032 99.7197 28.8113 99.7232 27.6201 99.7148C26.6175 99.7093 25.6149 99.6976 24.6123 99.6699C22.4267 99.6118 20.2212 99.4816 18.0605 99.0938C15.8698 98.6977 13.8283 98.0556 11.8369 97.042C9.87857 96.0448 8.08619 94.7424 6.53223 93.1885C4.97828 91.6345 3.67592 89.8451 2.67871 87.8867C1.66486 85.8923 1.01933 83.8502 0.625977 81.6562C0.238222 79.4958 0.107979 77.2938 0.0498047 75.1084C0.0221039 74.1056 0.0113995 73.1024 0.00585938 72.0996C0.00031977 70.9085 0 69.7174 0 68.5264V31.1943C0 30.0032 0.000319209 28.8114 0.00585938 27.623C0.0113994 26.6204 0.0221116 25.6178 0.0498047 24.6152C0.107976 22.4324 0.238165 20.2271 0.625977 18.0664C1.01931 15.8726 1.66495 13.8313 2.67871 11.8369C3.67594 9.87847 4.97821 8.0882 6.53223 6.53418C8.08615 4.98034 9.87864 3.67878 11.8369 2.68164C13.8284 1.66791 15.8669 1.02225 18.0605 0.628906C20.2212 0.238325 22.4267 0.110747 24.6123 0.0498047C25.6149 0.0221098 26.6175 0.0114 27.6201 0.00585938C28.8113 0.000319209 30.0032 0 31.1943 0H68.5293ZM70.498 15.2354C70.2551 15.2579 68.1159 15.6369 67.8584 15.6895L38.2188 21.6699L38.208 21.6729C37.4353 21.8362 36.8284 22.1107 36.3604 22.5039C35.7953 22.9776 35.4814 23.6485 35.3623 24.4297C35.3374 24.596 35.2959 24.9337 35.2959 25.4316C35.2959 25.4316 35.2959 55.7149 35.2959 62.5293C35.2959 63.3963 35.2269 64.2387 34.6396 64.9561C34.0525 65.6732 33.3267 65.8888 32.4766 66.0605C31.8312 66.1907 31.1854 66.321 30.54 66.4512C28.0916 66.9442 26.4987 67.2794 25.0557 67.8389C23.6762 68.3735 22.6421 69.0557 21.8193 69.9199C20.188 71.629 19.5258 73.9476 19.7529 76.1191C19.9468 77.9723 20.7808 79.7454 22.2129 81.0557C23.1796 81.9421 24.3877 82.6151 25.8115 82.9004C27.2879 83.1968 28.8612 83.0942 31.1602 82.6289C32.3845 82.3824 33.5316 81.997 34.623 81.3516C35.7034 80.7144 36.6286 79.8641 37.3516 78.8281C38.0773 77.7894 38.5451 76.6343 38.8027 75.4072C39.0686 74.1414 39.1328 72.9974 39.1328 71.7344V39.5596C39.1328 37.8366 39.6202 37.3819 41.0107 37.0439C41.0107 37.0439 65.6483 32.075 66.7979 31.8506C68.4016 31.5432 69.1582 32.0003 69.1582 33.6816V55.6455C69.1582 56.5153 69.1494 57.396 68.5566 58.1162C67.9695 58.8336 67.2438 59.0499 66.3936 59.2217C65.7482 59.3519 65.1024 59.4821 64.457 59.6123C62.0083 60.1054 60.4149 60.4404 58.9717 61C57.5924 61.5346 56.559 62.2159 55.7363 63.0801C54.1049 64.7891 53.3853 67.1077 53.6123 69.2793C53.8062 71.1324 54.6979 72.9056 56.1299 74.2158C57.0966 75.1022 58.3047 75.7559 59.7285 76.0439C61.2049 76.3403 62.7781 76.235 65.0771 75.7725C66.3015 75.5259 67.4487 75.1581 68.54 74.5127C69.6203 73.8756 70.5456 73.0252 71.2686 71.9893C71.9943 70.9505 72.4621 69.7945 72.7197 68.5674C72.9856 67.3016 72.9971 66.1576 72.9971 64.8945V17.8555C73.0024 16.1494 72.1018 15.0969 70.498 15.2354Z" fill="white"/>
</g>
<defs>
<clipPath id="clip0_38_67">
<rect width="100" height="100" fill="white"/>
</clipPath>
</defs>
</svg>
