<svg width="100" height="100" viewBox="0 0 100 100" fill="none" xmlns="http://www.w3.org/2000/svg">
<g clip-path="url(#clip0_116_14)">
<path fill-rule="evenodd" clip-rule="evenodd" d="M99.723 31.1939C99.723 30.0028 99.723 28.8116 99.7175 27.6205C99.7119 26.6177 99.7008 25.615 99.6731 24.6122C99.615 22.4266 99.4848 20.2244 99.097 18.0637C98.7036 15.8698 98.0582 13.8283 97.0443 11.8338C96.0471 9.87535 94.7452 8.08587 93.1911 6.53186C91.6371 4.97784 89.8449 3.6759 87.8864 2.67867C85.8947 1.66482 83.8532 1.02216 81.6621 0.626039C79.5014 0.238227 77.2964 0.108033 75.1108 0.0498615C74.108 0.0221607 73.1053 0.0110803 72.1025 0.00554017C70.9114 0 69.7202 0 68.5291 0H31.1939C30.0028 0 28.8116 0 27.6205 0.00554017C26.6177 0.0110803 25.615 0.0221607 24.6122 0.0498615C22.4266 0.110803 20.2216 0.238227 18.0609 0.628809C15.867 1.02216 13.8283 1.66759 11.8366 2.68144C9.87812 3.67867 8.08587 4.98061 6.53186 6.53463C4.97784 8.08864 3.6759 9.87812 2.67867 11.8366C1.66482 13.831 1.01939 15.8726 0.626039 18.0665C0.238227 20.2271 0.108033 22.4321 0.0498615 24.615C0.0221607 25.6177 0.0110803 26.6205 0.00554017 27.6233C0 28.8116 0 30.0028 0 31.1939V68.5263C0 69.7174 0 70.9086 0.00554017 72.0997C0.0110803 73.1025 0.0221607 74.1053 0.0498615 75.108C0.108033 77.2936 0.238227 79.4958 0.626039 81.6565C1.01939 83.8504 1.66482 85.892 2.67867 87.8864C3.6759 89.8449 4.97784 91.6343 6.53186 93.1884C8.08587 94.7424 9.87812 96.0443 11.8366 97.0415C13.8283 98.0554 15.8698 98.6981 18.0609 99.0942C20.2216 99.482 22.4266 99.6122 24.6122 99.6704C25.615 99.6981 26.6177 99.7091 27.6205 99.7147C28.8116 99.723 30.0028 99.7202 31.1939 99.7202H68.5263C69.7175 99.7202 70.9086 99.7202 72.0997 99.7147C73.1025 99.7091 74.1053 99.6981 75.108 99.6704C77.2936 99.6122 79.4986 99.482 81.6593 99.0942C83.8532 98.7008 85.892 98.0554 87.8837 97.0415C89.8421 96.0443 91.6344 94.7424 93.1884 93.1884C94.7424 91.6343 96.0443 89.8449 97.0416 87.8864C98.0554 85.892 98.7008 83.8504 99.0942 81.6565C99.482 79.4958 99.6122 77.2909 99.6704 75.108C99.6981 74.1053 99.7091 73.1025 99.7147 72.0997C99.723 70.9086 99.7202 69.7174 99.7202 68.5263V31.1939H99.723Z" fill="url(#paint0_linear_116_14)"/>
<path fill-rule="evenodd" clip-rule="evenodd" d="M70.4985 15.2355C70.2575 15.2576 68.1162 15.6371 67.8586 15.6897L38.2187 21.6704L38.2076 21.6731C37.4348 21.8366 36.8281 22.1108 36.36 22.5042C35.7949 22.9778 35.4818 23.6482 35.3627 24.4294C35.3378 24.5956 35.2962 24.9335 35.2962 25.4321C35.2962 25.4321 35.2962 55.7147 35.2962 62.5291C35.2962 63.3961 35.227 64.2382 34.6397 64.9557C34.0525 65.6731 33.3267 65.8892 32.4763 66.0609C31.8309 66.1911 31.1854 66.3213 30.54 66.4515C28.0913 66.9446 26.4985 67.2798 25.0553 67.8393C23.6758 68.374 22.6425 69.0554 21.8198 69.9197C20.1882 71.6288 19.5262 73.9474 19.7533 76.1191C19.9472 77.9723 20.781 79.7451 22.2131 81.0554C23.1799 81.9418 24.3877 82.6149 25.8115 82.9003C27.2879 83.1967 28.8613 83.0942 31.1605 82.6288C32.3849 82.3823 33.5317 81.9972 34.6231 81.3518C35.7035 80.7147 36.6287 79.8643 37.3517 78.8282C38.0774 77.7895 38.5456 76.6343 38.8032 75.4072C39.0691 74.1413 39.1328 72.9972 39.1328 71.7341V39.5596C39.1328 37.8366 39.6203 37.3823 41.0109 37.0443C41.0109 37.0443 65.6481 32.0748 66.7976 31.8504C68.4015 31.5429 69.1577 32 69.1577 33.6814V55.6454C69.1577 56.5152 69.1494 57.3961 68.5566 58.1163C67.9694 58.8338 67.2436 59.0499 66.3932 59.2216C65.7478 59.3518 65.1023 59.482 64.4569 59.6122C62.0082 60.1053 60.4154 60.4404 58.9722 61C57.5926 61.5346 56.5594 62.2161 55.7367 63.0803C54.1051 64.7895 53.3849 67.108 53.612 69.2798C53.8059 71.133 54.6979 72.9058 56.13 74.2161C57.0968 75.1025 58.3046 75.7562 59.7284 76.0443C61.2048 76.3407 62.7782 76.2355 65.0774 75.7728C66.3018 75.5263 67.4486 75.1579 68.54 74.5125C69.6203 73.8753 70.5456 73.0249 71.2685 71.9889C71.9943 70.9501 72.4625 69.795 72.7201 68.5679C72.986 67.3019 72.9971 66.1579 72.9971 64.8947V17.856C73.0026 16.1496 72.1023 15.0969 70.4985 15.2355Z" fill="white"/>
</g>
<defs>
<linearGradient id="paint0_linear_116_14" x1="49.8615" y1="99.3365" x2="49.8615" y2="2.14919" gradientUnits="userSpaceOnUse">
<stop stop-color="#FA233B"/>
<stop offset="1" stop-color="#FB5C74"/>
</linearGradient>
<clipPath id="clip0_116_14">
<rect width="100" height="100" fill="white"/>
</clipPath>
</defs>
</svg>
