<svg width="100" height="100" viewBox="0 0 100 100" fill="none" xmlns="http://www.w3.org/2000/svg">
<g clip-path="url(#clip0_116_10)">
<path d="M50.0241 0.757568C29.4626 0.757568 23.4491 0.77878 22.2802 0.87575C18.0607 1.22651 15.435 1.8909 12.5745 3.31514C10.37 4.40984 8.6314 5.67878 6.91554 7.45757C3.79063 10.7015 1.89675 14.6924 1.21117 19.4364C0.877843 21.7394 0.780876 22.2091 0.761179 33.9727C0.753604 37.8939 0.761179 43.0545 0.761179 49.9765C0.761179 70.522 0.783906 76.5295 0.882388 77.6962C1.22329 81.8023 1.86721 84.3856 3.2308 87.2114C5.83678 92.6204 10.8139 96.6811 16.6774 98.1962C18.7076 98.7189 20.95 99.0068 23.8287 99.1432C25.0483 99.1962 37.4798 99.2341 49.9188 99.2341C62.3578 99.2341 74.7968 99.2189 75.9862 99.1583C79.3194 99.0015 81.255 98.7417 83.395 98.1886C89.2964 96.6659 94.1826 92.6659 96.8416 87.1811C98.1787 84.4235 98.8567 81.7417 99.1635 77.85C99.2302 77.0015 99.2582 63.4735 99.2582 49.9636C99.2582 36.4515 99.2279 22.9485 99.1612 22.1C98.8506 18.1454 98.1726 15.4864 96.7924 12.6758C95.6598 10.375 94.4023 8.65681 92.5766 6.89999C89.3183 3.78787 85.3336 1.89393 80.5853 1.20908C78.2846 0.876508 77.8263 0.778023 66.0539 0.757568H50.0241Z" fill="url(#paint0_radial_116_10)"/>
<path d="M50.0241 0.757568C29.4626 0.757568 23.4491 0.77878 22.2802 0.87575C18.0607 1.22651 15.435 1.8909 12.5745 3.31514C10.37 4.40984 8.6314 5.67878 6.91554 7.45757C3.79063 10.7015 1.89675 14.6924 1.21117 19.4364C0.877843 21.7394 0.780876 22.2091 0.761179 33.9727C0.753604 37.8939 0.761179 43.0545 0.761179 49.9765C0.761179 70.522 0.783906 76.5295 0.882388 77.6962C1.22329 81.8023 1.86721 84.3856 3.2308 87.2114C5.83678 92.6204 10.8139 96.6811 16.6774 98.1962C18.7076 98.7189 20.95 99.0068 23.8287 99.1432C25.0483 99.1962 37.4798 99.2341 49.9188 99.2341C62.3578 99.2341 74.7968 99.2189 75.9862 99.1583C79.3194 99.0015 81.255 98.7417 83.395 98.1886C89.2964 96.6659 94.1826 92.6659 96.8416 87.1811C98.1787 84.4235 98.8567 81.7417 99.1635 77.85C99.2302 77.0015 99.2582 63.4735 99.2582 49.9636C99.2582 36.4515 99.2279 22.9485 99.1612 22.1C98.8506 18.1454 98.1726 15.4864 96.7924 12.6758C95.6598 10.375 94.4023 8.65681 92.5766 6.89999C89.3183 3.78787 85.3336 1.89393 80.5853 1.20908C78.2846 0.876508 77.8263 0.778023 66.0539 0.757568H50.0241Z" fill="url(#paint1_radial_116_10)"/>
<path d="M50.0013 13.6364C40.1258 13.6364 38.8865 13.6795 35.0078 13.8561C31.1367 14.0333 28.4944 14.6462 26.1823 15.5454C23.7907 16.4742 21.762 17.7167 19.7409 19.7386C17.7182 21.7598 16.4758 23.7886 15.544 26.1795C14.6425 28.4924 14.0289 31.1356 13.8547 35.0053C13.6812 38.8841 13.6357 40.1242 13.6357 50C13.6357 59.8757 13.6797 61.1114 13.8554 64.9901C14.0335 68.8614 14.6463 71.5038 15.5448 73.8159C16.4743 76.2076 17.7167 78.2364 19.7386 80.2576C21.759 82.2803 23.7877 83.5257 26.1778 84.4545C28.4914 85.3538 31.1345 85.9667 35.0048 86.1439C38.8835 86.3204 40.1221 86.3636 49.9968 86.3636C59.873 86.3636 61.1085 86.3204 64.9872 86.1439C68.8583 85.9667 71.5037 85.3538 73.8173 84.4545C76.2081 83.5257 78.2338 82.2803 80.2542 80.2576C82.2768 78.2364 83.5192 76.2076 84.451 73.8167C85.3449 71.5038 85.9586 68.8606 86.1404 64.9909C86.3146 61.1121 86.3601 59.8757 86.3601 50C86.3601 40.1242 86.3146 38.8848 86.1404 35.006C85.9586 31.1348 85.3449 28.4924 84.451 26.1803C83.5192 23.7886 82.2768 21.7598 80.2542 19.7386C78.2315 17.7159 76.2088 16.4735 73.815 15.5454C71.4969 14.6462 68.853 14.0333 64.9819 13.8561C61.1032 13.6795 59.8684 13.6364 49.9899 13.6364H50.0013ZM46.7393 20.1894C47.7074 20.1879 48.7877 20.1894 50.0013 20.1894C59.7101 20.1894 60.8608 20.2242 64.6948 20.3985C68.2401 20.5606 70.1643 21.153 71.4461 21.6507C73.143 22.3098 74.3528 23.0977 75.6248 24.3704C76.8975 25.6432 77.6853 26.8553 78.3459 28.5523C78.8436 29.8326 79.4368 31.7568 79.5981 35.3023C79.7724 39.1356 79.8102 40.2871 79.8102 49.9917C79.8102 59.6962 79.7724 60.8477 79.5981 64.681C79.436 68.2265 78.8436 70.1507 78.3459 71.4311C77.6868 73.128 76.8975 74.3364 75.6248 75.6083C74.3521 76.881 73.1438 77.6689 71.4461 78.328C70.1658 78.828 68.2401 79.4189 64.6948 79.581C60.8616 79.7553 59.7101 79.7932 50.0013 79.7932C40.2918 79.7932 39.141 79.7553 35.3078 79.581C31.7625 79.4174 29.8383 78.825 28.5557 78.3273C26.8588 77.6682 25.6467 76.8803 24.3741 75.6076C23.1014 74.3348 22.3135 73.1257 21.6529 71.428C21.1552 70.1477 20.562 68.2235 20.4007 64.678C20.2265 60.8447 20.1916 59.6932 20.1916 49.9826C20.1916 40.272 20.2265 39.1265 20.4007 35.2932C20.5628 31.7477 21.1552 29.8235 21.6529 28.5417C22.312 26.8447 23.1014 25.6326 24.3741 24.3598C25.6467 23.0871 26.8588 22.2992 28.5557 21.6386C29.8375 21.1386 31.7625 20.5477 35.3078 20.3848C38.6623 20.2333 39.9622 20.1879 46.7393 20.1803V20.1894ZM69.4113 26.2273C67.0023 26.2273 65.0478 28.1795 65.0478 30.5894C65.0478 32.9985 67.0023 34.953 69.4113 34.953C71.8203 34.953 73.7748 32.9985 73.7748 30.5894C73.7748 28.1803 71.8203 26.2257 69.4113 26.2257V26.2273ZM50.0013 31.3257C39.6887 31.3257 31.3276 39.6871 31.3276 50C31.3276 60.3129 39.6887 68.6704 50.0013 68.6704C60.3139 68.6704 68.672 60.3129 68.672 50C68.672 39.6871 60.3139 31.3257 50.0013 31.3257ZM50.0013 37.8788C56.695 37.8788 62.1222 43.3053 62.1222 50C62.1222 56.6939 56.695 62.1212 50.0013 62.1212C43.3068 62.1212 37.8805 56.6939 37.8805 50C37.8805 43.3053 43.3068 37.8788 50.0013 37.8788Z" fill="white"/>
</g>
<defs>
<radialGradient id="paint0_radial_116_10" cx="0" cy="0" r="1" gradientUnits="userSpaceOnUse" gradientTransform="translate(26.9221 106.819) rotate(-90) scale(97.5975 90.7954)">
<stop stop-color="#FFDD55"/>
<stop offset="0.1" stop-color="#FFDD55"/>
<stop offset="0.5" stop-color="#FF543E"/>
<stop offset="1" stop-color="#C837AB"/>
</radialGradient>
<radialGradient id="paint1_radial_116_10" cx="0" cy="0" r="1" gradientTransform="matrix(8.56497 42.7779 -176.371 35.3157 -15.7415 7.85165)" gradientUnits="userSpaceOnUse">
<stop stop-color="#3771C8"/>
<stop offset="0.128" stop-color="#3771C8"/>
<stop offset="1" stop-color="#6600FF" stop-opacity="0"/>
</radialGradient>
<clipPath id="clip0_116_10">
<rect width="100" height="100" fill="white"/>
</clipPath>
</defs>
</svg>
