<svg width="100" height="100" viewBox="0 0 100 100" fill="none" xmlns="http://www.w3.org/2000/svg">
<g clip-path="url(#clip0_16_33)">
<path d="M66.0547 0.757812C77.8267 0.778268 78.2853 0.876412 80.5859 1.20898C85.3342 1.89386 89.319 3.78831 92.5771 6.90039C94.4027 8.65712 95.6605 10.3751 96.793 12.6758C98.1732 15.4863 98.8515 18.1453 99.1621 22.0996C99.2288 22.9481 99.2588 36.4517 99.2588 49.9639C99.2588 63.4716 99.2307 76.9974 99.1641 77.8496C98.8573 81.7412 98.1788 84.4232 96.8418 87.1807C94.1828 92.6655 89.2968 96.6657 83.3955 98.1885C81.2554 98.7415 79.3196 99.0014 75.9863 99.1582C74.7953 99.2188 62.357 99.2344 49.9189 99.2344C37.4801 99.2344 25.0489 99.1966 23.8291 99.1436C20.9504 99.0072 18.708 98.719 16.6777 98.1963C10.8143 96.6811 5.83742 92.62 3.23145 87.2109C1.86795 84.3853 1.2237 81.8022 0.882812 77.6963C0.784331 76.5296 0.761719 70.522 0.761719 49.9766C0.761719 43.0546 0.754143 37.8939 0.761719 33.9727C0.781415 22.2093 0.878605 21.7394 1.21191 19.4365C1.89748 14.6927 3.79123 10.7019 6.91602 7.45801C8.63187 5.67922 10.3707 4.41013 12.5752 3.31543C15.4356 1.89128 18.061 1.22674 22.2803 0.875977C23.4492 0.779007 29.463 0.757813 50.0244 0.757812H66.0547ZM49.9961 13.6367C40.1258 13.6367 38.8857 13.68 35.0078 13.8564C31.137 14.0337 28.4946 14.6467 26.1826 15.5459C23.7912 16.4747 21.7622 17.7165 19.7412 19.7383C17.7186 21.7595 16.4767 23.7888 15.5449 26.1797C14.6435 28.4925 14.0297 31.1354 13.8555 35.0049C13.682 38.8837 13.6357 40.1242 13.6357 50C13.6357 59.8758 13.6797 61.1114 13.8555 64.9902C14.0335 68.8611 14.6466 71.5034 15.5449 73.8154C16.4744 76.2071 17.7173 78.2366 19.7393 80.2578C21.7596 82.2804 23.7887 83.5253 26.1787 84.4541C28.4921 85.3533 31.1349 85.9663 35.0049 86.1436C38.8835 86.3201 40.1225 86.3633 49.9971 86.3633C59.873 86.3633 61.1089 86.3201 64.9873 86.1436C68.8583 85.9663 71.5038 85.3533 73.8174 84.4541C76.2082 83.5253 78.2345 82.2805 80.2549 80.2578C82.2775 78.2366 83.5194 76.2073 84.4512 73.8164C85.345 71.5036 85.9588 68.8607 86.1406 64.9912C86.3149 61.1124 86.3604 59.8758 86.3604 50C86.3604 40.1242 86.3149 38.8846 86.1406 35.0059C85.9588 31.1349 85.345 28.4927 84.4512 26.1807C83.5194 23.789 82.2775 21.7595 80.2549 19.7383C78.2323 17.7156 76.2092 16.4739 73.8154 15.5459C71.4973 14.6467 68.8535 14.0337 64.9824 13.8564C61.1045 13.68 59.8693 13.6367 49.9961 13.6367ZM46.7393 20.1895C47.7074 20.1879 48.7884 20.1895 50.002 20.1895C59.7106 20.1895 60.8614 20.2242 64.6953 20.3984C68.2403 20.5605 70.1645 21.1527 71.4463 21.6504C73.1431 22.3094 74.3532 23.0976 75.625 24.3701C76.8977 25.6428 77.6861 26.8558 78.3467 28.5527C78.8444 29.833 79.4373 31.7578 79.5986 35.3027C79.7728 39.1356 79.8105 40.2875 79.8105 49.9912C79.8105 59.6954 79.7729 60.8477 79.5986 64.6807C79.4365 68.2257 78.8444 70.1504 78.3467 71.4307C77.6876 73.1276 76.8977 74.3364 75.625 75.6084C74.3524 76.881 73.1439 77.6691 71.4463 78.3281C70.166 78.8281 68.2404 79.4189 64.6953 79.5811C60.8621 79.7553 59.7106 79.793 50.002 79.793C40.2927 79.793 39.1415 79.7553 35.3086 79.5811C31.7636 79.4174 29.8392 78.8248 28.5566 78.3271C26.8597 77.6681 25.6467 76.8801 24.374 75.6074C23.1015 74.3348 22.3139 73.1253 21.6533 71.4277C21.1556 70.1474 20.5627 68.2229 20.4014 64.6777C20.2271 60.8446 20.1924 59.6928 20.1924 49.9824C20.1924 40.272 20.2271 39.1263 20.4014 35.293C20.5635 31.7479 21.1556 29.8238 21.6533 28.542C22.3124 26.845 23.1013 25.6321 24.374 24.3594C25.6467 23.0867 26.8597 22.2993 28.5566 21.6387C29.8384 21.1387 31.7636 20.5476 35.3086 20.3848C38.6627 20.2333 39.9628 20.1882 46.7393 20.1807V20.1895ZM50.002 31.3262C39.6894 31.3262 31.3281 39.6871 31.3281 50C31.3281 60.3129 39.6894 68.6709 50.002 68.6709C60.3144 68.6708 68.6729 60.3128 68.6729 50C68.6728 39.6872 60.3144 31.3263 50.002 31.3262ZM50.002 37.8789C56.6956 37.879 62.123 43.3054 62.123 50C62.123 56.6939 56.6956 62.121 50.002 62.1211C43.3075 62.1211 37.8809 56.6939 37.8809 50C37.8809 43.3053 43.3075 37.8789 50.002 37.8789ZM69.4121 26.2275C67.0031 26.2275 65.0479 28.18 65.0479 30.5898C65.0481 32.9987 67.0032 34.9531 69.4121 34.9531C71.8208 34.9529 73.7751 32.9986 73.7754 30.5898C73.7754 28.1809 71.821 26.2258 69.4121 26.2256V26.2275Z" fill="white"/>
</g>
<defs>
<clipPath id="clip0_16_33">
<rect width="100" height="100" fill="white"/>
</clipPath>
</defs>
</svg>
