<svg width="100" height="100" viewBox="0 0 100 100" fill="none" xmlns="http://www.w3.org/2000/svg">
<rect x="1" width="98" height="100" rx="20" fill="url(#paint0_linear_116_240)"/>
<path d="M8.96257 54.1287C8.78523 54.1287 8.64446 54.2662 8.62161 54.4622L8 59.1945L8.62161 63.8453C8.64446 64.0414 8.78523 64.1779 8.96257 64.1779C9.13443 64.1779 9.27429 64.0423 9.30172 63.8471L10.0385 59.1945L9.30172 54.4613C9.27521 54.2662 9.13352 54.1287 8.96257 54.1287ZM12.4582 51.5431C12.4289 51.3397 12.2836 51.1995 12.1044 51.1995C11.9243 51.1995 11.7753 51.3443 11.7507 51.5431C11.7507 51.545 10.9151 59.1945 10.9151 59.1945L11.7507 66.6764C11.7744 66.8771 11.9234 67.0219 12.1044 67.0219C12.2827 67.0219 12.428 66.8808 12.4573 66.6783L13.408 59.1945L12.4582 51.5431ZM25.6253 44.4854C25.2825 44.4854 24.9991 44.7667 24.9826 45.124L24.3171 59.201L24.9826 68.2982C25 68.6537 25.2825 68.934 25.6253 68.934C25.9662 68.934 26.2487 68.6528 26.2688 68.2963V68.2991L27.0211 59.201L26.2688 45.124C26.2487 44.7667 25.9662 44.4854 25.6253 44.4854ZM18.8105 49.3781C18.5472 49.3781 18.3324 49.5888 18.3113 49.8701L17.5618 59.1973L18.3113 68.2212C18.3315 68.5007 18.5472 68.7114 18.8105 68.7114C19.071 68.7114 19.2858 68.5007 19.3087 68.2212L20.1606 59.1973L19.3087 49.8683C19.2858 49.5888 19.071 49.3781 18.8105 49.3781ZM32.5507 68.9331C32.9757 68.9331 33.3213 68.5895 33.3387 68.1497L33.9913 59.2055L33.3396 40.4641C33.3222 40.0243 32.9767 39.6807 32.5516 39.6807C32.1229 39.6807 31.7764 40.0252 31.7627 40.465C31.7627 40.4659 31.1841 59.2046 31.1841 59.2046L31.7627 68.1525C31.7764 68.5886 32.1229 68.9331 32.5507 68.9331ZM46.7288 68.9753C47.3138 68.9753 47.7965 68.4924 47.8074 67.8987L48.2627 59.211L47.8074 37.5661C47.7974 36.9733 47.3138 36.4895 46.7288 36.4895C46.1428 36.4895 45.6592 36.9724 45.6501 37.567L45.2433 59.2037C45.2433 59.2174 45.6501 67.9042 45.6501 67.9042C45.6592 68.4924 46.1437 68.9753 46.7288 68.9753ZM39.5858 68.9414C40.095 68.9414 40.5054 68.5318 40.5191 68.0096V68.016L41.0731 59.2074L40.5182 40.3303C40.5045 39.8081 40.094 39.3995 39.5849 39.3995C39.0721 39.3995 38.6616 39.8081 38.6506 40.3303L38.1579 59.2083L38.6516 68.0151C38.6625 68.5318 39.073 68.9414 39.5858 68.9414ZM22.2046 68.8589C22.5072 68.8589 22.7522 68.6161 22.775 68.2963L23.5776 59.1973L22.775 50.5417C22.7531 50.2219 22.5081 49.981 22.2046 49.981C21.8975 49.981 21.6525 50.2238 21.6333 50.5454L20.9267 59.1973L21.6333 68.2954C21.6534 68.6161 21.8975 68.8589 22.2046 68.8589ZM15.4437 68.3605C15.6649 68.3605 15.8441 68.1855 15.8697 67.9436L16.771 59.1955L15.8706 50.1175C15.8441 49.8747 15.6649 49.6997 15.4437 49.6997C15.2198 49.6997 15.0406 49.8756 15.0177 50.1175C15.0177 50.1184 14.2243 59.1955 14.2243 59.1955L15.0177 67.9418C15.0397 68.1846 15.2189 68.3605 15.4437 68.3605ZM43.1436 40.0161C42.5905 40.0161 42.1472 40.4568 42.1362 41.0212L41.6865 59.2092L42.1362 67.961C42.1472 68.5181 42.5896 68.9588 43.1436 68.9588C43.6957 68.9588 44.1363 68.519 44.1491 67.9546V67.9619L44.6537 59.2101L44.1491 41.0193C44.1363 40.4568 43.6957 40.0161 43.1436 40.0161ZM29.0752 68.9514C29.4573 68.9514 29.7727 68.639 29.7909 68.2404L30.493 59.2037L29.7909 41.9072C29.7717 41.5077 29.4573 41.1962 29.0752 41.1962C28.6894 41.1962 28.375 41.5086 28.3585 41.9072C28.3585 41.9081 27.7369 59.2037 27.7369 59.2037L28.3594 68.2441C28.375 68.639 28.6894 68.9514 29.0752 68.9514ZM36.9147 68.0939L37.518 59.2064L36.9147 39.8337C36.9001 39.3527 36.5216 38.9752 36.0545 38.9752C35.5847 38.9752 35.2062 39.3518 35.1934 39.8337L34.6577 59.2055L35.1943 68.0975C35.2071 68.574 35.5856 68.9505 36.0545 68.9505C36.5226 68.9505 36.8992 68.573 36.9147 68.0939ZM82.5461 48.0395C81.1136 48.0395 79.747 48.3299 78.502 48.8531C77.6701 39.4086 69.7684 32 60.1299 32C57.7714 32 55.4724 32.4654 53.4421 33.2525C52.6532 33.5585 52.443 33.8737 52.4357 34.4848V67.7439C52.4439 68.3852 52.9403 68.9194 53.5646 68.9826C53.5911 68.9853 82.3587 69 82.5451 69C88.3188 69 93 64.308 93 58.5202C93 52.7324 88.3197 48.0395 82.5461 48.0395ZM50.2984 34.4555C49.6704 34.4555 49.1549 34.9722 49.1457 35.6072L48.674 59.2138L49.1466 67.7814C49.1549 68.4072 49.6704 68.923 50.2984 68.923C50.9246 68.923 51.4402 68.4072 51.4493 67.7723V67.7823L51.9621 59.2138L51.4493 35.6054C51.4402 34.9722 50.9246 34.4555 50.2984 34.4555Z" fill="white"/>
<defs>
<linearGradient id="paint0_linear_116_240" x1="50" y1="0" x2="50" y2="100" gradientUnits="userSpaceOnUse">
<stop stop-color="#F79810"/>
<stop offset="1" stop-color="#F8310E"/>
</linearGradient>
</defs>
</svg>
