<svg width="100" height="100" viewBox="0 0 100 100" fill="none" xmlns="http://www.w3.org/2000/svg">
<path d="M79 0C90.0457 1.15966e-06 99 8.95431 99 20V80C99 91.0457 90.0457 100 79 100H21C9.95431 100 1 91.0457 1 80V20C1 8.95431 9.95431 0 21 0H79ZM60.1299 32C57.7715 32 55.4726 32.4659 53.4424 33.2529C52.6537 33.5589 52.443 33.8735 52.4355 34.4844V67.7441C52.4439 68.3853 52.9403 68.9191 53.5645 68.9824C53.591 68.9852 82.3376 69 82.5449 69C88.3184 69 92.9998 64.3082 93 58.5205C93 52.7327 88.3195 48.0391 82.5459 48.0391C81.1135 48.0391 79.7469 48.3304 78.502 48.8535C77.6701 39.4091 69.7684 32 60.1299 32ZM46.7285 36.4893C46.1427 36.4894 45.6595 36.9728 45.6504 37.5674L45.2432 59.2041C45.2457 59.2727 45.6504 67.9043 45.6504 67.9043C45.6596 68.4924 46.1436 68.9754 46.7285 68.9756C47.3136 68.9756 47.7966 68.4922 47.8076 67.8984L48.2627 59.2109L47.8076 37.5664C47.7976 36.9736 47.3136 36.4893 46.7285 36.4893ZM43.1436 40.0156C42.5905 40.0156 42.1467 40.4571 42.1357 41.0215L41.6865 59.209L42.1357 67.9609C42.1467 68.518 42.5896 68.959 43.1436 68.959C43.6957 68.959 44.1366 68.5185 44.1494 67.9541V67.9619L44.6533 59.21L44.1494 41.0195C44.1366 40.457 43.6957 40.0156 43.1436 40.0156ZM29.0752 41.1963C28.6894 41.1963 28.3749 41.5087 28.3584 41.9072C28.357 41.9461 27.7373 59.2041 27.7373 59.2041L28.3594 68.2441C28.3749 68.639 28.6894 68.9512 29.0752 68.9512C29.4573 68.9512 29.7727 68.6388 29.791 68.2402L30.4932 59.2041L29.791 41.9072C29.7718 41.5078 29.4573 41.1963 29.0752 41.1963ZM36.0547 38.9756C35.5848 38.9756 35.2062 39.352 35.1934 39.834L34.6582 59.2051L35.1943 68.0977C35.2072 68.574 35.5858 68.9502 36.0547 68.9502C36.5226 68.9501 36.8995 68.5729 36.915 68.0938L37.5176 59.2061L36.915 39.834C36.9004 39.353 36.5217 38.9757 36.0547 38.9756ZM39.585 39.3994C39.0722 39.3994 38.6615 39.808 38.6504 40.3301L38.1582 59.208L38.6514 68.0146C38.6623 68.5314 39.0731 68.9414 39.5859 68.9414C40.0631 68.9413 40.4533 68.5815 40.5117 68.1064L40.5195 68.0156L41.0732 59.207L40.5186 40.3301C40.5047 39.808 40.094 39.3995 39.585 39.3994ZM25.625 44.4854C25.2823 44.4855 24.9989 44.7668 24.9824 45.124L24.3174 59.2012L24.9824 68.2979C24.9998 68.6533 25.2823 68.9335 25.625 68.9336C25.9234 68.9336 26.1769 68.7185 26.249 68.4258L26.2686 68.2988L27.0215 59.2012L26.2686 45.124C26.2484 44.7667 25.966 44.4854 25.625 44.4854ZM32.5518 39.6807C32.1231 39.6807 31.7765 40.0251 31.7627 40.4648L31.1836 59.2051L31.7627 68.1523C31.7764 68.5885 32.123 68.9336 32.5508 68.9336C32.9758 68.9335 33.3215 68.5892 33.3389 68.1494L33.9912 59.2051L33.3398 40.4639C33.3224 40.0242 32.9767 39.6808 32.5518 39.6807ZM50.2988 34.4551C49.6708 34.4551 49.1546 34.9725 49.1455 35.6074L48.6738 59.2139L49.1465 67.7812C49.1547 68.407 49.6708 68.9229 50.2988 68.9229C50.9248 68.9226 51.44 68.4072 51.4492 67.7725V67.7822L51.9619 59.2139L51.4492 35.6055C51.4401 34.9725 50.9248 34.4553 50.2988 34.4551ZM22.2051 49.9814C21.8981 49.9814 21.6522 50.2235 21.6328 50.5449L20.9268 59.1973L21.6328 68.2959C21.6531 68.6164 21.8981 68.8594 22.2051 68.8594C22.5074 68.8591 22.7525 68.6155 22.7754 68.2959L23.5771 59.1973L22.7754 50.542C22.7535 50.2224 22.5083 49.9817 22.2051 49.9814ZM18.8105 49.3779C18.5473 49.3779 18.3325 49.5888 18.3115 49.8701L17.5615 59.1973L18.3115 68.2217C18.3318 68.5009 18.5474 68.7109 18.8105 68.7109C19.0709 68.7109 19.2855 68.5009 19.3086 68.2217L20.1602 59.1973L19.3086 49.8682C19.2857 49.5888 19.071 49.378 18.8105 49.3779ZM15.4434 49.6992C15.2197 49.6994 15.0405 49.8756 15.0176 50.1172C15.0176 50.1181 14.2285 59.1503 14.2246 59.1953L15.0176 67.9414C15.0395 68.1841 15.2187 68.3602 15.4434 68.3604C15.6646 68.3604 15.8445 68.1852 15.8701 67.9434L16.7715 59.1953L15.8711 50.1172C15.8445 49.8745 15.6645 49.6992 15.4434 49.6992ZM12.1045 51.1992C11.9245 51.1992 11.7757 51.3442 11.751 51.543C11.751 51.5448 10.9198 59.1506 10.915 59.1943L11.751 66.6768C11.7749 66.8772 11.9236 67.0215 12.1045 67.0215C12.2826 67.0214 12.4276 66.8809 12.457 66.6787L13.4082 59.1943L12.458 51.543C12.4287 51.3397 12.2836 51.1993 12.1045 51.1992ZM8.96289 54.1289C8.78566 54.1289 8.64505 54.266 8.62207 54.4619L8 59.1943L8.62207 63.8457C8.64508 64.0415 8.78568 64.1777 8.96289 64.1777C9.1346 64.1776 9.27435 64.0417 9.30176 63.8467L10.0381 59.1943L9.30176 54.4609C9.27514 54.2661 9.13359 54.1291 8.96289 54.1289Z" fill="white"/>
</svg>
