<svg width="100" height="100" viewBox="0 0 100 100" fill="none" xmlns="http://www.w3.org/2000/svg">
<path d="M48.5 1.5625C21.7272 1.5625 0 23.2617 0 50C0 76.7383 21.7272 98.4375 48.5 98.4375C75.2728 98.4375 97 76.7383 97 50C97 23.2617 75.2728 1.5625 48.5 1.5625Z" fill="#1ED760"/>
<path d="M79.5168 45.1367C78.4998 45.1367 77.874 44.8828 76.994 44.375C63.0698 36.0742 38.1744 34.082 22.0599 38.5742C21.3559 38.7695 20.4758 39.082 19.5371 39.082C16.9557 39.082 14.9805 37.0703 14.9805 34.4727C14.9805 31.8164 16.6232 30.3125 18.3833 29.8047C25.2672 27.793 32.9724 26.8359 41.3621 26.8359C55.6383 26.8359 70.599 29.8047 81.5311 36.1719C83.0565 37.0508 84.0539 38.2617 84.0539 40.5859C84.0539 43.2422 81.9026 45.1367 79.5168 45.1367ZM73.4543 60.0195C72.4373 60.0195 71.7528 59.5703 71.0488 59.1992C58.826 51.9727 40.5994 49.0625 24.3871 53.457C23.4484 53.7109 22.9399 53.9648 22.0599 53.9648C19.9674 53.9648 18.266 52.2656 18.266 50.1758C18.266 48.0859 19.2829 46.6992 21.2972 46.1328C26.7339 44.6094 32.2879 43.4766 40.4234 43.4766C53.1156 43.4766 65.3774 46.6211 75.0383 52.3633C76.6224 53.3008 77.2482 54.5117 77.2482 56.2109C77.2287 58.3203 75.5859 60.0195 73.4543 60.0195ZM68.1936 72.832C67.3722 72.832 66.8637 72.5781 66.101 72.1289C53.8978 64.7852 39.6998 64.4727 25.6778 67.3437C24.9151 67.5391 23.9178 67.8516 23.3506 67.8516C21.4537 67.8516 20.2607 66.3477 20.2607 64.7656C20.2607 62.7539 21.4537 61.7969 22.9204 61.4844C38.9371 57.9492 55.3059 58.2617 69.2692 66.6016C70.4621 67.3633 71.1662 68.0469 71.1662 69.8242C71.1662 71.6016 69.7776 72.832 68.1936 72.832Z" fill="black"/>
</svg>
