<svg width="100" height="100" viewBox="0 0 100 100" fill="none" xmlns="http://www.w3.org/2000/svg">
<path d="M48.5 1.5625C75.2728 1.5625 97 23.2617 97 50C97 76.7383 75.2728 98.4375 48.5 98.4375C21.7272 98.4375 0 76.7383 0 50C0 23.2617 21.7272 1.5625 48.5 1.5625ZM69.2695 66.6016C55.3062 58.2617 38.9367 57.9492 22.9199 61.4844C21.4534 61.797 20.2607 62.7541 20.2607 64.7656C20.2607 66.3476 21.4536 67.8515 23.3506 67.8516C23.9177 67.8516 24.915 67.5391 25.6777 67.3438C39.6996 64.4727 53.8974 64.7853 66.1006 72.1289C66.8632 72.5781 67.3721 72.832 68.1934 72.832C69.7774 72.832 71.166 71.6016 71.166 69.8242C71.166 68.047 70.4623 67.3632 69.2695 66.6016ZM40.4238 43.4766C32.2883 43.4766 26.7336 44.6094 21.2969 46.1328C19.2828 46.6993 18.2656 48.086 18.2656 50.1758C18.2656 52.2655 19.9672 53.9647 22.0596 53.9648C22.9395 53.9648 23.4482 53.7109 24.3867 53.457C40.599 49.0625 58.826 51.9727 71.0488 59.1992C71.7528 59.5703 72.4373 60.0195 73.4541 60.0195C75.5858 60.0195 77.2285 58.3203 77.248 56.2109C77.248 54.5117 76.6222 53.3008 75.0381 52.3633C65.3773 46.6212 53.1157 43.4766 40.4238 43.4766ZM41.3623 26.8359C32.9726 26.8359 25.2667 27.793 18.3828 29.8047C16.6229 30.3126 14.9805 31.8166 14.9805 34.4727C14.9805 37.0703 16.9557 39.082 19.5371 39.082C20.4757 39.082 21.3556 38.7695 22.0596 38.5742C38.1741 34.082 63.0699 36.0742 76.9941 44.375C77.8741 44.8827 78.4998 45.1367 79.5166 45.1367C81.9025 45.1367 84.0537 43.2422 84.0537 40.5859C84.0537 38.2618 83.0566 37.0508 81.5312 36.1719C70.5992 29.8047 55.6385 26.836 41.3623 26.8359Z" fill="white"/>
</svg>
