<svg width="100" height="100" viewBox="0 0 100 100" fill="none" xmlns="http://www.w3.org/2000/svg">
<g clip-path="url(#clip0_16_42)">
<path d="M78.125 0C90.2062 0 100 9.79377 100 21.875V78.125C100 90.2062 90.2062 100 78.125 100H21.875C9.79377 100 0 90.2062 0 78.125V21.875C0 9.79377 9.79377 0 21.875 0H78.125ZM51.9766 63.2939C51.9766 64.0161 51.9767 64.7302 51.9463 65.4355C51.9463 65.5233 51.9376 65.6047 51.9326 65.6992C51.9326 65.7381 51.9332 65.7788 51.9248 65.8193V65.8496C51.7781 67.78 51.1595 69.6451 50.123 71.2803C49.0865 72.9153 47.6636 74.2702 45.9805 75.2266C44.2262 76.2246 42.242 76.7477 40.2236 76.7451C33.7411 76.7451 28.4865 71.4597 28.4863 64.9316C28.4863 58.4034 33.7409 53.1172 40.2236 53.1172C41.4507 53.1161 42.6702 53.3094 43.8369 53.6895L43.8535 39.5225C40.3116 39.065 36.7128 39.3459 33.2852 40.3486C29.8575 41.3515 26.6753 43.0544 23.9385 45.3486C21.5404 47.4323 19.5239 49.9184 17.9805 52.6953C17.3929 53.7084 15.1765 57.7773 14.9082 64.3809C14.7395 68.1294 15.8657 72.0132 16.4023 73.6182V73.6523C16.7402 74.5981 18.0484 77.8224 20.1797 80.541C21.8985 82.7221 23.9296 84.6384 26.207 86.2275V86.1934L26.2402 86.2275C32.9586 90.7929 40.4058 90.5054 40.4443 90.5039C41.7371 90.4516 46.0682 90.5046 50.9863 88.1738C56.4412 85.5899 59.5469 81.7393 59.5469 81.7393C61.5307 79.4391 63.1084 76.8174 64.2119 73.9873C65.4708 70.6778 65.8906 66.7085 65.8906 65.1221V36.5791C66.0603 36.6809 68.3076 38.167 68.3076 38.167C68.3281 38.1801 71.5625 40.247 76.5996 41.5947C80.2249 42.5567 85.1094 42.7588 85.1094 42.7588V28.9463C83.3979 29.1319 79.923 28.5921 76.3652 26.8184C75.8184 26.5358 75.2854 26.2255 74.7695 25.8896C73.2699 24.8981 71.8946 23.7301 70.6738 22.4102C67.619 18.9148 66.4779 15.3683 66.0576 12.8857H66.0742C65.7246 10.833 65.8679 9.50236 65.8906 9.49219H51.9766V63.2939Z" fill="white"/>
</g>
<defs>
<clipPath id="clip0_16_42">
<rect width="100" height="100" fill="white"/>
</clipPath>
</defs>
</svg>
