<svg width="100" height="100" viewBox="0 0 100 100" fill="none" xmlns="http://www.w3.org/2000/svg">
<g clip-path="url(#clip0_116_12)">
<path d="M78.125 0H21.875C9.79377 0 0 9.79377 0 21.875V78.125C0 90.2062 9.79377 100 21.875 100H78.125C90.2062 100 100 90.2062 100 78.125V21.875C100 9.79377 90.2062 0 78.125 0Z" fill="black"/>
<path d="M76.365 26.8183C75.8181 26.5357 75.2858 26.2259 74.77 25.8901C73.2701 24.8984 71.8948 23.73 70.6739 22.4099C67.6191 18.9146 66.4781 15.3686 66.0578 12.8859H66.0747C65.7237 10.8251 65.8689 9.49182 65.8907 9.49182H51.9769V63.2942C51.9769 64.0165 51.9769 64.7304 51.9465 65.4359C51.9465 65.5237 51.938 65.6047 51.933 65.6992C51.933 65.738 51.933 65.7785 51.9246 65.8191C51.9246 65.8292 51.9246 65.8393 51.9246 65.8494C51.7779 67.7798 51.1591 69.6446 50.1226 71.2798C49.0861 72.9149 47.6636 74.2702 45.9803 75.2266C44.226 76.2247 42.2418 76.7481 40.2233 76.7455C33.7406 76.7455 28.4867 71.4595 28.4867 64.9313C28.4867 58.403 33.7406 53.117 40.2233 53.117C41.4505 53.1158 42.6701 53.309 43.8369 53.6891L43.8538 39.5221C40.3118 39.0646 36.7134 39.346 33.2856 40.3488C29.8578 41.3516 26.6751 43.0539 23.9381 45.3482C21.54 47.4319 19.5239 49.9181 17.9804 52.695C17.393 53.7077 15.177 57.7769 14.9087 64.381C14.7399 68.1296 15.8656 72.0131 16.4023 73.6181V73.6519C16.7399 74.5971 18.0479 77.8223 20.1796 80.5414C21.8985 82.7224 23.9292 84.6382 26.2066 86.2274V86.1937L26.2403 86.2274C32.9762 90.8046 40.4445 90.5042 40.4445 90.5042C41.7373 90.4519 46.068 90.5042 50.9862 88.1733C56.4411 85.5894 59.5465 81.7396 59.5465 81.7396C61.5304 79.4394 63.1079 76.8179 64.2115 73.9877C65.4705 70.678 65.8907 66.7084 65.8907 65.122V36.5787C66.0596 36.6799 68.3076 38.1668 68.3076 38.1668C68.3076 38.1668 71.5465 40.2427 76.5996 41.5947C80.2249 42.5567 85.1093 42.7592 85.1093 42.7592V28.9466C83.3978 29.1322 79.9228 28.5922 76.365 26.8183Z" fill="white"/>
</g>
<defs>
<clipPath id="clip0_116_12">
<rect width="100" height="100" fill="white"/>
</clipPath>
</defs>
</svg>
