<svg width="100" height="100" viewBox="0 0 100 100" fill="none" xmlns="http://www.w3.org/2000/svg">
<g clip-path="url(#clip0_116_19)">
<path d="M50 100C77.6142 100 100 77.6142 100 50C100 22.3858 77.6142 0 50 0C22.3858 0 0 22.3858 0 50C0 77.6142 22.3858 100 50 100Z" fill="#FF0000"/>
<path d="M49.9996 26.1364C63.1246 26.1364 73.8633 36.8182 73.8633 50C73.8633 63.1818 63.1815 73.8636 49.9996 73.8636C36.8178 73.8636 26.136 63.1818 26.136 50C26.136 36.8182 36.8746 26.1364 49.9996 26.1364ZM49.9996 23.8636C35.5678 23.8636 23.8633 35.5682 23.8633 50C23.8633 64.4318 35.5678 76.1364 49.9996 76.1364C64.4315 76.1364 76.136 64.4318 76.136 50C76.136 35.5682 64.4315 23.8636 49.9996 23.8636Z" fill="white"/>
<path d="M40.9092 63.0682L63.0683 49.4318L40.9092 36.9318V63.0682Z" fill="white"/>
</g>
<defs>
<clipPath id="clip0_116_19">
<rect width="100" height="100" fill="white"/>
</clipPath>
</defs>
</svg>
