<svg width="100" height="100" viewBox="0 0 100 100" fill="none" xmlns="http://www.w3.org/2000/svg">
<g clip-path="url(#clip0_16_26)">
<path d="M50 15C50.0053 15 81.2738 15.0002 89.0684 17.0908C93.3735 18.2432 96.7569 21.6266 97.9092 25.9316C99.9916 33.7264 100 49.998 100 50C100 50 100 66.273 97.9092 74.0684C96.7569 78.3733 93.3735 81.757 89.0684 82.9092C81.2738 84.9999 50.0053 85 50 85C50 85 18.7272 85.0001 10.9316 82.9092C6.62651 81.7569 3.24326 78.3733 2.09082 74.0684C5.05757e-05 66.273 0 50 0 50C0 50 1.50857e-05 33.7269 2.09082 25.9316C3.24326 21.6267 6.62652 18.2433 10.9316 17.0908C18.7272 15 50 15 50 15ZM39.9902 64.999L65.9697 50.001L39.9902 35.0039V64.999Z" fill="white"/>
</g>
<defs>
<clipPath id="clip0_16_26">
<rect width="100" height="100" fill="white"/>
</clipPath>
</defs>
</svg>
