<svg width="100" height="100" viewBox="0 0 100 100" fill="none" xmlns="http://www.w3.org/2000/svg">
<g clip-path="url(#clip0_38_78)">
<path d="M50 0C77.6142 0 100 22.3858 100 50C100 77.6142 77.6142 100 50 100C22.3858 100 0 77.6142 0 50C0 22.3858 22.3858 0 50 0ZM50 23.8633C35.5682 23.8633 23.8633 35.5682 23.8633 50C23.8633 64.4318 35.5682 76.1367 50 76.1367C64.4317 76.1365 76.1357 64.4317 76.1357 50C76.1357 35.5683 64.4317 23.8635 50 23.8633ZM50 26.1367C63.1248 26.1369 73.8633 36.8183 73.8633 50C73.8633 63.1817 63.1817 73.8631 50 73.8633C36.8182 73.8633 26.1357 63.1818 26.1357 50C26.1357 36.8182 36.875 26.1367 50 26.1367ZM40.9092 63.0684L63.0684 49.4316L40.9092 36.9316V63.0684Z" fill="white"/>
</g>
<defs>
<clipPath id="clip0_38_78">
<rect width="100" height="100" fill="white"/>
</clipPath>
</defs>
</svg>
