<svg width="100" height="100" viewBox="0 0 100 100" fill="none" xmlns="http://www.w3.org/2000/svg">
<g clip-path="url(#clip0_116_6)">
<path d="M97.9093 25.9313C96.7571 21.6263 93.3735 18.2432 89.0683 17.0908C81.273 15 50 15 50 15C50 15 18.7274 15 10.9319 17.0908C6.62664 18.2432 3.24334 21.6263 2.09089 25.9313C6.2588e-07 33.7265 0 50 0 50C0 50 6.2588e-07 66.2736 2.09089 74.0688C3.24334 78.3738 6.62664 81.7569 10.9319 82.9091C18.7274 85 50 85 50 85C50 85 81.273 85 89.0683 82.9091C93.3735 81.7569 96.7571 78.3738 97.9093 74.0688C100 66.2736 100 50 100 50C100 50 99.9919 33.7265 97.9093 25.9313Z" fill="#FF0000"/>
<path d="M39.9902 64.9989L65.9699 50.0014L39.9902 35.0037V64.9989Z" fill="white"/>
</g>
<defs>
<clipPath id="clip0_116_6">
<rect width="100" height="100" fill="white"/>
</clipPath>
</defs>
</svg>
